# xmcd
#
# Track frame offsets:
#	151
#	16402
#	27269
#	38132
#	52001
#	66060
#	79473
#	93744
#	112649
#	126804
#	142951
#	161088
#
# Disc length: 2368 seconds
#
# Revision: 1
# Processed by: cddbd v1.5.2PL0 Copyright (c) Steve Scherf et al.
# Submitted via: audiograbber 1.83.01
#
DISCID=9c093e0c
DTITLE=Clôd Couture - Arrête Me Voir
DYEAR=1900
DGENRE=Country
TTITLE0=Ma Musique Country (Clôd Couture-Clôd Couture)
TTITLE1=Enlacé (Clôd Couture-Clôd Couture)
TTITLE2=Prend Mon Coeur (A.Brazeau-H.Williams)
TTITLE3=Oublie Moi Pardonne Moi (Clôd Couture-G.Jones)
TTITLE4=Belle En Dedans (Clôd Couture-Clôd Couture)
TTITLE5=Un Coin Du Ciel (Marcel Martel-Marcel Martel)
TTITLE6=Arrête Me Voir (Clôd Couture-D.Yoakam)
TTITLE7=Elle Est Partie Doucement (Clôd Couture-G.Strait)
TTITLE8=Adieu Montreal (Clôd Couture-Clôd Couture)
TTITLE9=Voler Comme L'oiseau (Clôd Couture-R.Skaggs)
TTITLE10=Faire De La Musique (Louis Berube)
TTITLE11=Je T'M Encore (Clôd Couture-R.Travis)
EXTD=
EXTT0=
EXTT1=
EXTT2=
EXTT3=
EXTT4=
EXTT5=
EXTT6=
EXTT7=
EXTT8=
EXTT9=
EXTT10=
EXTT11=
PLAYORDER=
